<?xml version="1.0" standalone="no"?>
<!DOCTYPE svg PUBLIC "-//W3C//DTD SVG 20010904//EN"
 "http://www.w3.org/TR/2001/REC-SVG-20010904/DTD/svg10.dtd">
<svg version="1.0" xmlns="http://www.w3.org/2000/svg"
 width="64.000000pt" height="64.000000pt" viewBox="0 0 64.000000 64.000000"
 preserveAspectRatio="xMidYMid meet">

<g transform="translate(0.000000,64.000000) scale(0.100000,-0.100000)"
fill="#000000" stroke="none">
<path d="M177 563 c-8 -7 43 -103 55 -103 13 0 10 18 -12 60 -21 41 -33 53
-43 43z"/>
<path d="M76 461 c-7 -10 7 -22 51 -45 35 -18 53 -20 53 -8 0 14 -98 63 -104
53z"/>
<path d="M40 320 c0 -5 25 -10 55 -10 30 0 55 5 55 10 0 6 -25 10 -55 10 -30
0 -55 -4 -55 -10z"/>
<path d="M135 228 c-49 -26 -65 -40 -60 -49 7 -10 105 39 105 53 0 11 -21 10
-45 -4z"/>
<path d="M470 231 c0 -11 62 -51 79 -51 22 0 10 15 -29 38 -43 24 -50 26 -50
13z"/>
<path d="M196 131 c-14 -27 -22 -52 -17 -55 10 -7 22 7 45 51 35 70 10 73 -28
4z"/>
<path d="M400 169 c0 -21 44 -89 57 -89 10 0 7 14 -13 50 -26 47 -44 63 -44
39z"/>
<path d="M310 95 c0 -30 5 -55 10 -55 6 0 10 25 10 55 0 30 -4 55 -10 55 -5 0
-10 -25 -10 -55z"/>
</g>
</svg>
